# xmcd CD database file
#
# Track frame offsets:
#	150
#	11638
#	22610
#	32105
#	42105
#	51788
#	60228
#	71200
#	83100
#	101098
#	114028
#	126245
#	140745
#	154358
#	164095
#	173655
#	185563
#	200085
#	209483
#	225175
#
# Disc length: 3217 seconds
#
# Revision: 0
# Processed by: cddbd v1.5.2PL0 Copyright (c) Steve Scherf et al.
# Submitted via: CDex 1.50beta10
#
DISCID=110c8f14
DTITLE=Boxcar Willie - The Best of
DYEAR=1900
DGENRE=Country
TTITLE0=I've Got A Best Case Of Feeling Sorry For Me
TTITLE1=The Lord Made A Hobo Out Of Me
TTITLE2=Blue Eyed Girl Of Berlin
TTITLE3=Six Pound Fish
TTITLE4=The Fragrance Of Her Perfume
TTITLE5=Daddy Was A Railroad Man
TTITLE6=The Day Elvis Died
TTITLE7=Hot Box Blues
TTITLE8=Pappa's Old Pocket Watch
TTITLE9=I'm Going Back To Texas
TTITLE10=I Can't Help It
TTITLE11=I'm So Lonesome I Could Cry
TTITLE12=Lonesome Whistle
TTITLE13=Waitin' For A Train
TTITLE14=T B Blues
TTITLE15=Cold Windy City Of Chicago
TTITLE16=Take Me Home
TTITLE17=I Wake Up Every Morning With A Smile On My Face
TTITLE18=Trouble
TTITLE19=Train Medley
EXTD=
EXTT0=
EXTT1=
EXTT2=
EXTT3=
EXTT4=
EXTT5=
EXTT6=
EXTT7=
EXTT8=
EXTT9=
EXTT10=
EXTT11=
EXTT12=
EXTT13=
EXTT14=
EXTT15=
EXTT16=
EXTT17=
EXTT18=
EXTT19=
PLAYORDER=
